{"accessors":{"accessor_21":{"bufferView":"bufferView_1","byteOffset":0,"byteStride":0,"componentType":5123,"count":42384,"max":[21191],"min":[0],"type":"SCALAR"},"accessor_23":{"bufferView":"bufferView_0","byteOffset":0,"byteStride":0,"componentType":5126,"count":42384,"max":[0.005133759696036577,0.01673309877514839,0.007275829557329416],"min":[-0.005687379743903875,0.002982720034196973,0.0017492399783805013],"type":"VEC3"},"accessor_25":{"bufferView":"bufferView_0","byteOffset":508608,"byteStride":0,"componentType":5126,"count":42384,"max":[0.9999459981918335,0.9999420046806335,0.9999880194664001],"min":[-0.9999459981918335,-0.9999960064888,-1],"type":"VEC3"}},"animations":{},"asset":{"generator":"collada2gltf@ec3ff192cc7dd54ad5f27c08bf14e37805754a10","premultipliedAlpha":true,"profile":{"api":"WebGL","version":"1.0.2"},"version":"1.0.1"},"bufferViews":{"bufferView_0":{"buffer":"input","byteLength":1017216,"byteOffset":0,"target":34962},"bufferView_1":{"buffer":"input","byteLength":84768,"byteOffset":1017216,"target":34963}},"buffers":{"input":{"type":"arraybuffer","byteLength":1101984,"uri":"data:application/octet-stream;base64,"}},"materials":{"aiStandardSurface2-fx":{"name":"aiStandardSurface2","technique":"technique0","values":{"ambient":[0,0,0,1],"diffuse":[0,0,0,1],"emission":[0,0,0,1],"specular":[0,0,0,1]}}},"meshes":{"butterfly_mask_Mesh-lib":{"name":"butterfly_mask_MeshMesh","primitives":[{"attributes":{"NORMAL":"accessor_25","POSITION":"accessor_23"},"indices":"accessor_21","material":"aiStandardSurface2-fx","mode":4}]}},"nodes":{"rootNode":{"children":[],"meshes":["butterfly_mask_Mesh-lib"],"matrix":[1,0,0,0,0,1,0,0,0,0,1,0,0,0,0,1]}},"programs":{"program_0":{"attributes":["a_normal","a_position"],"fragmentShader":"input0FS","vertexShader":"input0VS"}},"scene":"defaultScene","scenes":{"defaultScene":{"nodes":["rootNode"]}},"shaders":{"input0FS":{"type":35632,"uri":"data:text/plain;base64,"},"input0VS":{"type":35633,"uri":"data:text/plain;base64,"}},"skins":{},"techniques":{"technique0":{"attributes":{"a_normal":"normal","a_position":"position"},"parameters":{"ambient":{"type":35666},"diffuse":{"semantic":"_3DTILESDIFFUSE","type":35666},"emission":{"type":35666},"modelViewMatrix":{"semantic":"MODELVIEW","type":35676},"normal":{"semantic":"NORMAL","type":35665},"normalMatrix":{"semantic":"MODELVIEWINVERSETRANSPOSE","type":35675},"position":{"semantic":"POSITION","type":35665},"projectionMatrix":{"semantic":"PROJECTION","type":35676},"specular":{"type":35666}},"program":"program_0","states":{"enable":[2929,2884]},"uniforms":{"u_ambient":"ambient","u_diffuse":"diffuse","u_emission":"emission","u_modelViewMatrix":"modelViewMatrix","u_normalMatrix":"normalMatrix","u_projectionMatrix":"projectionMatrix","u_specular":"specular"}}},"cameras":{},"images":{},"samplers":{},"textures":{},"extensionsUsed":[]}
