{"accessors":{"accessor_0":{"bufferView":"bufferView_0","byteOffset":0,"byteStride":0,"componentType":5126,"count":28260,"min":[-1.852565050125122,0.2982720136642456,0.17492400109767914],"max":[-0.770451009273529,1.6733089685440063,0.7275829911231995],"type":"VEC3"},"accessor_1":{"bufferView":"bufferView_0","byteOffset":339120,"byteStride":0,"componentType":5126,"count":28260,"min":[-0.9999459981918335,-0.9999960064888,-1],"max":[0.9999459981918335,0.9999420046806335,0.9999880194664001],"type":"VEC3"},"accessor_2":{"bufferView":"bufferView_0","byteOffset":678240,"byteStride":0,"componentType":5126,"count":28260,"min":[0.00018200000340584666,0.0014250000240281224],"max":[1.0002219676971436,1.0014649629592896],"type":"VEC2"},"accessor_3":{"bufferView":"bufferView_1","byteOffset":0,"byteStride":0,"componentType":5123,"count":42384,"min":[0],"max":[28259],"type":"SCALAR"}},"asset":{"generator":"obj2gltf","profile":{"api":"WebGL","version":"1.0"},"version":"1.0","premultipliedAlpha":true},"buffers":{"buffer":{"byteLength":989088,"uri":"data:application/octet-stream;base64,","type":"arraybuffer"}},"bufferViews":{"bufferView_0":{"buffer":"buffer","byteLength":904320,"byteOffset":0,"target":34962},"bufferView_1":{"buffer":"buffer","byteLength":84768,"byteOffset":904320,"target":34963}},"extensionsUsed":[],"images":{},"materials":{"aiStandardSurface1SG":{"technique":"technique0","values":{"ambient":[0,0,0,1],"diffuse":[0.5,0.5,0.5,1],"emission":[0,0,0,1],"specular":[0,0,0,1],"shininess":0,"transparency":1}}},"meshes":{"Node-Mesh":{"name":"Node-Mesh","primitives":[{"attributes":{"POSITION":"accessor_0","NORMAL":"accessor_1","TEXCOORD_0":"accessor_2"},"indices":"accessor_3","material":"aiStandardSurface1SG","mode":4}]}},"nodes":{"Node":{"name":"Node","meshes":["Node-Mesh"],"children":[],"matrix":[1,0,0,0,0,1,0,0,0,0,1,0,0,0,0,1]}},"samplers":{},"scene":"scene","scenes":{"scene":{"nodes":["Node"]}},"textures":{},"animations":{},"cameras":{},"programs":{"program0":{"attributes":["a_position","a_normal","a_texcoord_0"],"fragmentShader":"fragmentShader0","vertexShader":"vertexShader0"}},"shaders":{"vertexShader0":{"type":35633,"uri":"data:text/plain;base64,"},"fragmentShader0":{"type":35632,"uri":"data:text/plain;base64,"}},"skins":{},"techniques":{"technique0":{"attributes":{"a_position":"position","a_normal":"normal","a_texcoord_0":"texcoord_0"},"parameters":{"modelViewMatrix":{"semantic":"MODELVIEW","type":35676},"projectionMatrix":{"semantic":"PROJECTION","type":35676},"normalMatrix":{"semantic":"MODELVIEWINVERSETRANSPOSE","type":35675},"ambient":{"type":35666},"diffuse":{"type":35666},"emission":{"type":35666},"specular":{"type":35666},"shininess":{"type":5126},"transparency":{"type":5126},"position":{"semantic":"POSITION","type":35665},"normal":{"semantic":"NORMAL","type":35665},"texcoord_0":{"semantic":"TEXCOORD_0","type":5126}},"program":"program0","states":{"enable":[2884,2929]},"uniforms":{"u_modelViewMatrix":"modelViewMatrix","u_projectionMatrix":"projectionMatrix","u_normalMatrix":"normalMatrix","u_ambient":"ambient","u_diffuse":"diffuse","u_emission":"emission","u_specular":"specular","u_shininess":"shininess","u_transparency":"transparency"}}}}
